<?xml version="1.0" encoding="utf-8"?>
<!-- Generator: Adobe Illustrator 16.0.3, SVG Export Plug-In . SVG Version: 6.00 Build 0)  -->
<svg version="1.1"
	 id="Wikimedia_Deno_Logo" xmlns="http://www.w3.org/2000/svg" xmlns:xlink="http://www.w3.org/1999/xlink" x="0px" y="0px" width="620px" height="618px"
	 viewBox="0 0 620 618" enable-background="new 0 0 620 618" xml:space="preserve">
<path d="M305.147,253.68c11.6,1.746,21.72,4.973,31.72,10.106c6.467,3.333,9.547,5.653,16.733,12.52
	c10.68,10.213,17.253,19.146,23.414,31.773c8.986,18.373,12.48,34.653,16.893,78.28c2,19.56,4.613,55.027,5.187,69.56
	c0.16,4.213,0.507,11.134,0.827,15.399c0.56,9.041,1.227,7.801-6.72,11.654c-11.04,5.333-21.667,9.039-35.68,12.479
	c-17.147,4.214-28.24,5.547-45.173,5.601l-12.32,0.053l0.106-5.906c0-3.24,0.307-10.773,0.613-16.681
	c1.547-28.586,1.227-64.68-0.773-84.693c-1.133-11.493-3.333-25.466-4.573-28.546c-0.254-0.667,0.92-1.227,6-2.973
	c9.293-3.24,17.346-7.293,18.586-9.293c2.213-3.8-1.747-9.24-6.773-9.24c-0.866,0-3.493,0.92-5.907,2
	c-11.494,5.293-34.547,11.493-47.84,12.879c-9.187,0.974-23.453,0.414-33.36-1.387c-5.387-0.973-15.041-4.626-23.093-8.772
	c-9.293-4.827-14.987-11.24-16.68-18.841c-0.92-4.106-0.667-12.319,0.507-16.933c1.28-5.08,4.88-12.48,8.16-16.787
	c14.627-19.253,44.813-35.933,75.773-41.787C280.614,252.293,294.574,252.093,305.147,253.68z M310.031,102.702
	c-115.275,0-208.723,93.449-208.723,208.724c0,115.274,93.448,208.723,208.723,208.723S518.754,426.7,518.754,311.425
	C518.754,196.15,425.305,102.702,310.031,102.702z M296.16,124.987c0,6,0.414,19.04,0.973,31.413
	c0.307,6.053,0.667,14.733,0.827,19.253c0.56,16.013,2.253,58.053,2.52,61.8l0.253,3.747l-2.307-0.253
	c-1.28-0.107-2.466-0.414-2.667-0.56c-0.16-0.2-0.506-3.747-0.72-7.907c-0.92-18.28-3.946-89.16-4.266-99.533l-0.307-11.4l1.44-0.2
	c0.773-0.107,2.054-0.253,2.88-0.307l1.387-0.053v4H296.16z M345.294,123.76c0.054,0.053,0.2,15.56,0.36,34.44
	c0.2,18.947,0.466,35.934,0.613,37.787c0.159,1.893,0.106,3.546-0.16,3.64c-0.2,0.16-1.494,0.16-2.773,0l-2.36-0.2l-0.36-14.933
	c-0.2-8.267-0.467-17.4-0.56-20.374c-0.413-9.08-0.773-39.933-0.467-40.706c0.2-0.561,0.773-0.613,2.92-0.254
	C344.014,123.44,345.24,123.707,345.294,123.76z M226.56,140.947c0.307,0.466,2.72,28.746,5.693,65.76
	c0.973,12.573,1.946,24.08,2.106,25.507c0.253,2.613,0.2,2.72-1.44,3.746c-0.92,0.561-1.854,1.027-2.053,1.027
	c-0.16,0-0.467-1.333-0.613-2.973c-0.72-6.667-3.494-38.907-5.44-62.213c-1.133-13.707-2.159-25.973-2.307-27.307
	c-0.253-2.253-0.2-2.466,1.134-3.187C225.28,140.44,226.2,140.28,226.56,140.947z M367.881,151.267
	c1.44,0.52,1.586,0.773,1.893,3.693c0.52,5.133,0.36,29.667-0.2,29.667c-1.494,0-4.574-1.747-4.827-2.72
	c-0.16-0.613-0.307-7.907-0.307-16.174C364.44,149.066,364.227,150.04,367.881,151.267z M273.067,153.68
	c0,1.387,0.359,9.04,0.773,17.093c0.414,8.054,0.867,18.28,1.08,22.693c0.36,8.934,0.467,8.627-2.973,8.827
	c-1.693,0.053-1.693,0.053-1.8-2.521c-0.106-1.439-0.36-5.906-0.667-10.013c-0.253-4.106-0.867-12.987-1.28-19.76
	c-0.413-6.773-0.92-13.507-1.08-14.934c-0.307-2.56-0.253-2.667,1.134-3.187c0.827-0.307,2.253-0.56,3.187-0.56
	C273.067,151.267,273.067,151.267,273.067,153.68z M415.467,160.72l1.747,0.72l0.36,6.88c0.16,3.747,0.253,11.854,0.16,17.974
	l-0.16,11.187l-2.16-1.08l-2.16-1.026l-0.16-17.04c-0.106-9.4-0.053-17.347,0.053-17.707
	C413.36,159.84,413.36,159.84,415.467,160.72z M321.734,167.44c0.307,0.307,1.026,25.2,1.079,37.827l0.054,7.6l-2.414-0.36
	c-1.386-0.16-2.52-0.307-2.56-0.36c-0.159-0.107-1.693-38.146-1.693-41.84v-3.8l2.613,0.307
	C320.294,167.027,321.574,167.28,321.734,167.44z M439.947,171.08c0.613,0.72,0.72,11.96,0.866,73.974
	c0.16,71.2,0.16,73.053-0.772,73.053c-0.561,0-1.333-0.307-1.8-0.667c-0.773-0.56-0.867-6.773-1.133-67.6
	c-0.2-36.854-0.467-70.333-0.613-74.387l-0.307-7.387l1.493,1.08C438.56,169.747,439.533,170.626,439.947,171.08z M393.907,181.613
	c0.253,0.2,0.507,3.133,0.56,6.466c0.253,11.347,0.307,80.907,0.053,81.107c-0.106,0.106-1.026-0.16-2.053-0.56l-1.854-0.773v-43.68
	v-43.64l1.44,0.307C392.827,181.04,393.654,181.346,393.907,181.613z M252.227,184.48c0.16,1.387,0.414,4.52,0.56,7.08
	c0.16,2.52,0.507,8.267,0.827,12.733c0.613,9.04,0.52,9.6-2.414,9.6c-1.546,0-1.747-0.16-1.946-1.693
	c-0.507-3.026-2.307-28.28-2.054-28.693c0.253-0.36,2.92-1.28,4.16-1.387C251.654,182.066,252.067,183.146,252.227,184.48z
	 M167.321,197.573c0.56,5.44,1.693,16.84,2.52,25.307c0.867,8.466,1.587,15.653,1.587,15.96c0,0.613-3.947,2.56-4.36,2.16
	c-0.253-0.253-5.387-45.68-5.387-47.747c0-1.227,3.947-6.414,4.467-5.854C166.294,187.506,166.801,192.08,167.321,197.573z
	 M368.6,202.96l1.493,0.867l0.053,11.093c0.053,6.053,0.16,12.827,0.16,15.04c0.107,4.626-0.467,5.387-3.24,4.413l-1.586-0.56V229.4
	c0-2.467-0.16-9.6-0.36-15.907l-0.307-11.4H366C366.6,202.093,367.774,202.506,368.6,202.96z M189.854,222.88
	c0.92,9.853,2.414,26.493,3.387,36.96l1.747,18.987l-2,2l-1.946,2l-0.36-4.054c-0.2-2.253-1.227-12.733-2.307-23.307
	s-2.613-25.92-3.387-34.08l-1.44-14.787l2-1.854c1.8-1.693,2-1.747,2.36-0.827C188.107,204.453,188.987,212.973,189.854,222.88z
	 M151.401,229.093c1.133,10.106,4.107,37.013,6.68,59.747c2.56,22.747,4.973,44.654,5.44,48.773
	c0.414,4.107,1.134,10.32,1.547,13.854c0.72,6,0.72,6.413-0.106,7.027c-1.227,0.92-1.747,0.826-1.747-0.254
	c0-0.466-0.467-4.36-1.026-8.573c-0.92-7.026-2.467-18.946-5.907-45.693c-0.72-5.387-2.106-16.12-3.079-23.867
	c-1.027-7.747-2.521-19.307-3.333-25.667c-0.827-6.36-2.213-17.253-3.08-24.28c-0.92-6.986-1.494-13.187-1.333-13.866
	c0.36-1.387,3.387-6.213,3.693-5.907C149.254,210.56,150.28,218.92,151.401,229.093z M135.694,251.213
	c0.773,6.16,2.213,17.4,3.187,25.053c0.973,7.6,2.213,17.093,2.773,21.053l0.973,7.187l-1.08,0.92
	c-0.613,0.521-1.227,0.72-1.44,0.521c-0.2-0.2-0.613-2.253-0.92-4.521c-0.307-2.253-2.214-15.453-4.267-29.253l-3.64-25.147
	l1.187-3.493c0.613-1.894,1.28-3.44,1.44-3.44C134.107,240.08,134.881,245.106,135.694,251.213z M417.52,244.493
	c0.72,0.72,0.827,3.907,0.827,27.467v26.64h-1.44c-3.133,0-3.08,0.773-3.28-28.386l-0.16-26.533h1.64
	C415.973,243.667,417.107,244.027,417.52,244.493z M463.507,255.267c1.854,0.773,2.053,0.973,2.053,2.72
	c0.107,14.013-0.199,46.04-0.467,47.386c-0.053,0.467-2.719,0.52-3.853,0.107c-0.72-0.253-0.826-3.027-0.826-25.667
	c0-16.227,0.199-25.36,0.506-25.36C461.2,254.453,462.387,254.813,463.507,255.267z M485.947,283.453l1.854,0.773l-0.359,42.506
	c-0.414,54.16-0.467,55.747-2.414,60.414c-3.187,7.653-3.026,9.187-2.72-24.387c0.106-16.787,0.36-33.773,0.467-37.733
	c0.106-3.947,0.2-15.094,0.253-24.8c0-11.707,0.16-17.56,0.521-17.56C483.84,282.68,484.92,283.04,485.947,283.453z M177.227,296.24
	c0.307,4.16,0.201,4.573-1.28,7.854l-1.64,3.493l-0.613-5.133c-0.973-8.213-0.973-8.574,0.973-9.8c0.867-0.613,1.8-1.026,1.947-0.92
	C176.76,291.84,177.067,293.867,177.227,296.24z M145.508,327.186c0.466,4.214,4.053,32.134,5.906,45.841
	c2.773,21.2,2.973,24.227,1.747,22.946c-0.16-0.16-1.333-7.293-2.56-15.866c-8.014-55.333-7.96-54.974-7.293-55.387
	C144.68,323.8,145.147,324.32,145.508,327.186z M182.467,350.693c0.307,1.28,1.8,15.2,1.8,16.893c0,1.44-1.854,2.773-2.667,1.947
	c-0.253-0.253-0.92-4.613-1.44-9.653c-0.56-5.08-1.133-10.374-1.28-11.761l-0.307-2.56l1.8,2.053
	C181.387,348.747,182.307,350.133,182.467,350.693z M223.893,370.053c0.56,0.52,0.92,2.56,1.387,8.106
	c0.773,10.014,0.867,9.24-1.227,9.24c-2.16,0-2.106,0.16-2.827-8.88c-0.72-9.186-0.72-9.08,0.667-9.08
	C222.547,369.44,223.427,369.747,223.893,370.053z M264.547,370.827c0.107,0.52,0.36,3.6,0.56,6.826
	c0.16,3.24,0.613,10.521,1.026,16.174c1.44,20.733,1.494,23.36,0.613,23.36c-0.973,0-1.08-0.773-2.213-15.4
	c-0.414-6.054-1.186-15.6-1.693-21.2c-0.466-5.6-0.773-10.267-0.613-10.373C262.801,369.586,264.294,370.053,264.547,370.827z
	 M168.041,380.68c0.307,0.467,2.253,16.893,4.667,39.32c0.72,6.773,1.44,13.293,1.586,14.533l0.253,2.213l-1.28-0.827
	c-0.974-0.667-1.333-1.333-1.333-2.52c0-3.24-2.213-24.533-3.907-37.573c-0.974-7.387-1.747-13.907-1.747-14.534
	C166.294,380.213,167.52,379.8,168.041,380.68z M464.281,402.133l-0.36,21.453l-1.28,1.894c-2.919,4.307-2.772,5.133-2.612-18.894
	l0.105-22.026l1.894-1.947c1.027-1.027,2.054-1.893,2.254-1.893C464.441,380.733,464.441,390.373,464.281,402.133z M416.801,436.173
	c0.253,29.827,0.2,32.133-0.613,33.053c-0.507,0.56-0.974,0.92-1.134,0.773c-0.36-0.413-0.866-65.454-0.467-65.814
	c0.2-0.2,0.72-0.307,1.187-0.253C416.44,404.08,416.587,407.733,416.801,436.173z M249.147,415.733
	c0.36,3.187,1.64,18.427,2.16,25.613c0.307,4.827,0.307,4.974-0.827,5.333c-0.613,0.2-1.333,0.16-1.533-0.107
	c-0.36-0.36-1.494-11.76-2.88-29.307l-0.36-4.213h1.586C248.787,413.066,248.893,413.173,249.147,415.733z M208.801,433.707
	c0.36,0.36,0.613,1.64,0.613,2.92c0,1.333,0.613,8.267,1.28,15.454c1.947,19.667,2.107,22.333,1.227,21.813
	c-1.333-0.773-2.52-1.947-2.253-2.254c0.107-0.199-0.106-2.773-0.506-5.693c-0.36-2.973-0.827-7.8-1.027-10.786
	c-0.2-2.975-0.667-8.414-1.08-12.067c-0.973-8.986-0.92-10.013,0.2-10.013C207.774,433.093,208.44,433.346,208.801,433.707z
	 M233.08,468.253c0.16,1.134,0.467,5.334,0.667,9.347c0.36,7.707,0.2,8.267-1.893,6.667c-0.613-0.467-1.027-2.414-1.64-8.267
	c-1.08-10.573-1.133-10.16,0.867-9.96C232.56,466.2,232.774,466.399,233.08,468.253z M214.747,278.267
	c-5.333,2.307-5.747,9.546-0.72,12.12c3.64,1.854,7.347,0.974,9.24-2.213C226.867,282.32,221.014,275.546,214.747,278.267z
	 M249.56,283.2c-4.933,3.027-4.933,10.32,0,13.347c4.88,2.92,11.187-0.92,11.187-6.773C260.747,284.12,254.28,280.32,249.56,283.2z"
	/>
<path fill="#900" d="M310,10C207.6,10,117.201,61.333,63.067,139.733l58,33.467c42.4-58.533,111.2-96.533,188.933-96.533
	c77.734,0,146.533,38.133,188.934,96.533l58-33.467C502.8,61.333,412.401,10,310,10z"/>
<path fill="#069" d="M31.467,198.4C17.6,232.933,10,270.533,10,309.867c0,154.4,116.667,281.6,266.667,298.133v-67.2
	c-113.066-16.133-200-113.466-200-230.933c0-27.2,4.667-53.467,13.333-77.733L31.467,198.4z"/>
<path fill="#069" d="M588.533,198.4L530,232.133c8.667,24.267,13.333,50.533,13.333,77.733c0,117.467-86.933,214.667-200,230.933
	V608C493.333,591.467,610,464.134,610,309.867C610,270.533,602.401,232.933,588.533,198.4z"/>
</svg>
